<mxfile host="app.diagrams.net" agent="Mozilla/5.0 (Windows NT 10.0; Win64; x64) AppleWebKit/537.36 (KHTML, like Gecko) Chrome/121.0.0.0 Safari/537.36" version="24.7.16">
  <diagram name="PÃ¡gina-1" id="NfPrVVcTNH_jaM6oXlir">
    <mxGraphModel dx="1599" dy="323" grid="1" gridSize="10" guides="1" tooltips="1" connect="1" arrows="1" fold="1" page="1" pageScale="1" pageWidth="827" pageHeight="1169" math="0" shadow="0">
      <root>
        <mxCell id="0" />
        <mxCell id="1" parent="0" />
        <mxCell id="BpbL2CLXbk11PD9w6e_h-2" value="CARRERAS" style="swimlane;whiteSpace=wrap;html=1;" vertex="1" parent="1">
          <mxGeometry x="-780" y="40" width="150" height="90" as="geometry" />
        </mxCell>
        <mxCell id="BpbL2CLXbk11PD9w6e_h-3" value="ID_CARRERA (PK)&lt;div&gt;NOMBRE_CARRERA&lt;/div&gt;&lt;div&gt;NUM_RESOLUCION&lt;/div&gt;&lt;div&gt;ANIO_PLAN_ESTUDIO&lt;/div&gt;" style="text;html=1;align=left;verticalAlign=middle;resizable=0;points=[];autosize=1;strokeColor=none;fillColor=none;" vertex="1" parent="BpbL2CLXbk11PD9w6e_h-2">
          <mxGeometry x="10" y="20" width="150" height="70" as="geometry" />
        </mxCell>
        <mxCell id="BpbL2CLXbk11PD9w6e_h-5" value="MATERIAS" style="swimlane;whiteSpace=wrap;html=1;" vertex="1" parent="1">
          <mxGeometry x="-765" y="180" width="120" height="80" as="geometry" />
        </mxCell>
        <mxCell id="BpbL2CLXbk11PD9w6e_h-6" value="ID_MATERIA (PK)&lt;div&gt;NOMBRE_MATERIA&lt;/div&gt;&lt;div&gt;ANIO_CURSADA&lt;/div&gt;" style="text;html=1;align=left;verticalAlign=middle;resizable=0;points=[];autosize=1;strokeColor=none;fillColor=none;" vertex="1" parent="BpbL2CLXbk11PD9w6e_h-5">
          <mxGeometry x="5" y="20" width="140" height="60" as="geometry" />
        </mxCell>
        <mxCell id="BpbL2CLXbk11PD9w6e_h-8" value="MATERIASXCARRERA" style="swimlane;whiteSpace=wrap;html=1;" vertex="1" parent="1">
          <mxGeometry x="-520" y="60" width="145" height="80" as="geometry" />
        </mxCell>
        <mxCell id="BpbL2CLXbk11PD9w6e_h-9" value="ID_MATXCARR (PK)&lt;div&gt;ID_CARRERA (FK)&lt;/div&gt;&lt;div&gt;ID_MATERIA(FK)&lt;/div&gt;" style="text;html=1;align=left;verticalAlign=middle;resizable=0;points=[];autosize=1;strokeColor=none;fillColor=none;" vertex="1" parent="BpbL2CLXbk11PD9w6e_h-8">
          <mxGeometry x="5" y="20" width="140" height="60" as="geometry" />
        </mxCell>
        <mxCell id="BpbL2CLXbk11PD9w6e_h-10" value="ALUMNOS" style="swimlane;whiteSpace=wrap;html=1;" vertex="1" parent="1">
          <mxGeometry x="-610" y="230" width="160" height="170" as="geometry" />
        </mxCell>
        <mxCell id="BpbL2CLXbk11PD9w6e_h-11" value="MATRICULA(PK)&lt;div&gt;NOMBRE&lt;/div&gt;&lt;div&gt;APELLIDO&lt;/div&gt;&lt;div&gt;DIRECCION_CALLE&lt;/div&gt;&lt;div&gt;DIRECCION_NUMERO&lt;/div&gt;&lt;div&gt;TELEFONO&lt;/div&gt;&lt;div&gt;DNI&lt;/div&gt;&lt;div&gt;EMAIL&lt;/div&gt;&lt;div&gt;FECHA_NACIMIENTO&lt;/div&gt;&lt;div&gt;&lt;br&gt;&lt;/div&gt;" style="text;html=1;align=left;verticalAlign=middle;resizable=0;points=[];autosize=1;strokeColor=none;fillColor=none;" vertex="1" parent="BpbL2CLXbk11PD9w6e_h-10">
          <mxGeometry x="10" y="20" width="150" height="160" as="geometry" />
        </mxCell>
        <mxCell id="BpbL2CLXbk11PD9w6e_h-13" value="ALUMNOSXCARRERA" style="swimlane;whiteSpace=wrap;html=1;startSize=23;" vertex="1" parent="1">
          <mxGeometry x="-310" y="100" width="135" height="80" as="geometry" />
        </mxCell>
        <mxCell id="BpbL2CLXbk11PD9w6e_h-14" value="ID_ALUXCARR(PK)&lt;div&gt;ID_CARRERA (FK)&lt;/div&gt;&lt;div&gt;MATRICULA(FK)&lt;/div&gt;" style="text;html=1;align=left;verticalAlign=middle;resizable=0;points=[];autosize=1;strokeColor=none;fillColor=none;" vertex="1" parent="BpbL2CLXbk11PD9w6e_h-13">
          <mxGeometry x="5" y="20" width="130" height="60" as="geometry" />
        </mxCell>
      </root>
    </mxGraphModel>
  </diagram>
</mxfile>
